<mxfile host="app.diagrams.net" modified="2021-04-12T09:16:32.217Z" agent="5.0 (Macintosh; Intel Mac OS X 10_14_6) AppleWebKit/537.36 (KHTML, like Gecko) Chrome/89.0.4389.114 Safari/537.36" etag="L3EDpPSVJ7hcAP_oQ5lS" version="14.5.10" type="github">
  <diagram id="FU71wws3fWGiMBVHeOKO" name="Page-1">
    <mxGraphModel dx="1773" dy="623" grid="1" gridSize="10" guides="1" tooltips="1" connect="1" arrows="1" fold="1" page="1" pageScale="1" pageWidth="827" pageHeight="1169" math="0" shadow="0">
      <root>
        <mxCell id="0" />
        <mxCell id="1" parent="0" />
        <mxCell id="DLj688eDqCC6l0ZAdkGH-4" value="airline" style="shape=actor;whiteSpace=wrap;html=1;" vertex="1" parent="1">
          <mxGeometry x="360" y="410" width="70" height="100" as="geometry" />
        </mxCell>
        <mxCell id="DLj688eDqCC6l0ZAdkGH-5" value="capacity" style="ellipse;shape=cloud;whiteSpace=wrap;html=1;" vertex="1" parent="1">
          <mxGeometry x="294" y="50" width="120" height="80" as="geometry" />
        </mxCell>
        <mxCell id="DLj688eDqCC6l0ZAdkGH-6" value="passangers" style="ellipse;shape=cloud;whiteSpace=wrap;html=1;" vertex="1" parent="1">
          <mxGeometry x="640" y="310" width="120" height="80" as="geometry" />
        </mxCell>
        <mxCell id="DLj688eDqCC6l0ZAdkGH-7" value="employees" style="ellipse;shape=cloud;whiteSpace=wrap;html=1;" vertex="1" parent="1">
          <mxGeometry x="550" y="190" width="120" height="80" as="geometry" />
        </mxCell>
        <mxCell id="DLj688eDqCC6l0ZAdkGH-8" value="planes" style="ellipse;shape=cloud;whiteSpace=wrap;html=1;" vertex="1" parent="1">
          <mxGeometry x="354" y="110" width="120" height="80" as="geometry" />
        </mxCell>
        <mxCell id="DLj688eDqCC6l0ZAdkGH-9" value="airports" style="ellipse;shape=cloud;whiteSpace=wrap;html=1;" vertex="1" parent="1">
          <mxGeometry x="174" y="190" width="120" height="80" as="geometry" />
        </mxCell>
        <mxCell id="DLj688eDqCC6l0ZAdkGH-10" value="flights" style="ellipse;shape=cloud;whiteSpace=wrap;html=1;" vertex="1" parent="1">
          <mxGeometry x="90" y="340" width="120" height="80" as="geometry" />
        </mxCell>
        <mxCell id="DLj688eDqCC6l0ZAdkGH-11" value="flight range" style="ellipse;shape=cloud;whiteSpace=wrap;html=1;" vertex="1" parent="1">
          <mxGeometry x="10" y="270" width="120" height="80" as="geometry" />
        </mxCell>
        <mxCell id="DLj688eDqCC6l0ZAdkGH-12" value="registration number" style="ellipse;shape=cloud;whiteSpace=wrap;html=1;" vertex="1" parent="1">
          <mxGeometry x="-20" y="360" width="120" height="80" as="geometry" />
        </mxCell>
      </root>
    </mxGraphModel>
  </diagram>
</mxfile>
